<svg width="184" height="185" viewBox="0 0 184 185" fill="none" xmlns="http://www.w3.org/2000/svg">
<path d="M175.265 38.1404C159.546 46.1823 144.299 61.227 140.481 94.3949C136.623 127.917 116.433 144.648 90.9427 154.235C94.5027 152.096 97.8838 149.557 100.679 146.495C106.263 140.379 110.422 132.791 111.565 124.795C112.961 115.021 110.888 104.461 103.911 98.1224C103.804 98.0242 103.859 98.3698 103.911 98.1224C110.516 66.4075 134.637 43.4921 175.265 38.1404Z" fill="white"/>
<path d="M64.2697 53.2424C64.1128 62.4624 66.2553 71.3332 69.4454 79.3123C69.6095 79.7225 70.0464 80.9098 70.4333 81.0609C84.8121 86.7058 98.2725 92.2934 103.34 97.3562L103.514 96.9729C110.73 81.1005 82.594 58.8007 64.2697 53.2424Z" fill="white"/>
<path d="M41.2389 135.394C44.7317 140.218 48.2238 143.778 51.7166 146.091C56.6525 149.47 62.6191 151.175 69.648 151.175C77.27 151.175 83.5496 148.633 88.516 143.548C93.4519 138.465 95.9202 132.274 95.9202 124.977C95.9202 115.736 90.8592 108.678 80.7384 103.773C71.2095 99.7959 61.7752 95.7887 52.4348 91.7808C42.1883 85.7696 37.0657 77.0671 37.0657 65.7627C37.0657 54.6076 41.1888 45.9044 49.4363 39.714C56.9332 34.1215 66.6495 31.3101 78.6137 31.3101C83.4874 31.3101 88.3915 32.028 93.2646 33.4639C105.229 36.9866 106.182 37.8265 102.918 46.832C101.856 49.7324 101.012 52.3349 100.387 54.6076H98.5758C96.6701 49.7026 93.7021 45.8751 89.6412 43.0636C85.5803 40.2528 80.8 38.8467 75.3338 38.8467C68.8041 38.8467 63.2122 40.8208 58.6204 44.7683C54.0281 48.7158 51.7166 53.7702 51.7166 59.9605C51.7166 68.3364 57.5581 76.1035 66.5555 80.2259C73.2775 83.3056 78.4654 85.4149 82.6721 87.1086C97.1845 92.9522 110.915 100.396 110.915 117.8C110.915 130.36 106.355 140.468 97.2016 148.094C88.5789 155.421 77.6764 159.07 64.4308 159.07C56.91 159.07 42.7247 155.89 36.854 151.097C35.1619 149.714 34.1593 148.112 34.7134 146.335C35.9106 142.499 35.8661 139.927 36.4915 136.2C37.4129 130.705 39.1001 132.44 41.2389 135.394Z" fill="white"/>
<path fill-rule="evenodd" clip-rule="evenodd" d="M68.8467 116.285C79.867 116.285 89.3031 123.054 93.22 132.655C92.5677 134.177 91.7811 135.628 90.8738 136.992C88.4616 127.115 79.546 119.783 68.9145 119.783C57.7277 119.783 48.441 127.9 46.6305 138.557C45.5877 137.206 44.6688 135.755 43.892 134.219C47.3841 123.797 57.2364 116.285 68.8467 116.285ZM87.3346 141.293C86.5304 142.089 85.6761 142.834 84.7779 143.526C84.8029 143.161 84.8169 142.792 84.8169 142.42C84.8169 133.638 77.6873 126.518 68.8943 126.518C60.1007 126.518 52.9718 133.638 52.9718 142.42C52.9718 143.164 53.0242 143.896 53.1231 144.614C52.1407 143.96 51.2028 143.244 50.3156 142.471C50.3662 132.291 58.6423 124.054 68.8467 124.054C78.6545 124.054 86.6811 131.663 87.3346 141.293ZM80.1812 146.385C79.4404 146.749 78.6813 147.08 77.9052 147.376C78.7009 145.919 79.1524 144.248 79.1524 142.471C79.1524 136.803 74.5527 132.208 68.8779 132.208C63.203 132.208 58.6021 136.803 58.6021 142.471C58.6021 144.494 59.1885 146.38 60.2002 147.969C59.3764 147.717 58.5691 147.426 57.7801 147.1C57.2047 145.701 56.8868 144.169 56.8868 142.564C56.8868 135.966 62.2419 130.618 68.8467 130.618C75.4522 130.618 80.8067 135.966 80.8067 142.564C80.8067 143.9 80.5864 145.185 80.1812 146.385Z" fill="white"/>
<path fill-rule="evenodd" clip-rule="evenodd" d="M92.2526 0C96.9029 0 100.673 3.7659 100.673 8.41065C100.673 13.0554 96.9029 16.8213 92.2526 16.8213C87.6016 16.8213 83.8312 13.0554 83.8312 8.41065C83.8312 3.7659 87.6016 0 92.2526 0ZM92.2526 3.1223C95.1766 3.1223 97.5473 5.48947 97.5473 8.41065C97.5473 11.3318 95.1766 13.6996 92.2526 13.6996C89.3273 13.6996 86.9566 11.3318 86.9566 8.41065C86.9566 5.48947 89.3273 3.1223 92.2526 3.1223Z" fill="white"/>
<path fill-rule="evenodd" clip-rule="evenodd" d="M32.2552 164.852C32.8087 162.552 34.3074 160.62 36.3198 159.49C36.271 159.563 36.2191 159.637 36.1654 159.711C35.4356 160.7 34.0981 162.04 33.4567 163.054C33.0632 163.675 32.6629 164.277 32.2552 164.852Z" fill="white"/>
<path fill-rule="evenodd" clip-rule="evenodd" d="M8.42077 59.9826C13.0711 59.9826 16.8415 63.7485 16.8415 68.3933C16.8415 73.038 13.0711 76.8039 8.42077 76.8039C3.77043 76.8039 0 73.038 0 68.3933C0 63.7485 3.77043 59.9826 8.42077 59.9826ZM8.42077 63.1049C11.3455 63.1049 13.7155 65.4721 13.7155 68.3933C13.7155 71.3144 11.3455 73.6822 8.42077 73.6822C5.49608 73.6822 3.12545 71.3144 3.12545 68.3933C3.12545 65.4721 5.49608 63.1049 8.42077 63.1049Z" fill="white"/>
<path fill-rule="evenodd" clip-rule="evenodd" d="M97.9085 6.82905C123.021 8.45633 145.301 20.4537 160.502 38.5762L157.038 39.4356C142.454 22.6734 121.478 11.6091 97.8994 10.0263C98.0464 9.51315 98.1245 8.97133 98.1245 8.41062C98.1245 7.86271 98.0495 7.33187 97.9085 6.82905ZM35.4691 160.572C34.7661 161.397 33.9265 162.312 33.4573 163.053C14.6625 146.709 2.78003 122.636 2.78003 95.79C2.78003 88.104 3.75208 80.6441 5.58451 73.5298C6.42537 73.9942 7.39254 74.2587 8.42073 74.2587C8.51409 74.2587 8.60745 74.2557 8.69959 74.2514C6.92085 81.1341 5.97504 88.3521 5.97504 95.7906C5.97504 121.635 17.3949 144.815 35.4691 160.572ZM86.5966 9.99646C52.7317 12.1095 24.1767 33.7828 12.121 63.8387C11.2978 63.1707 10.2898 62.7203 9.1847 62.5771C21.7298 31.3821 51.4185 8.90978 86.6051 6.79675C86.4581 7.30992 86.38 7.85113 86.38 8.41062C86.38 8.96036 86.455 9.49243 86.5966 9.99646Z" fill="white"/>
<path fill-rule="evenodd" clip-rule="evenodd" d="M175.579 59.6596C180.23 59.6596 184 63.4249 184 68.0703C184 72.715 180.23 76.4803 175.579 76.4803C170.929 76.4803 167.158 72.715 167.158 68.0703C167.158 63.4249 170.929 59.6596 175.579 59.6596ZM175.579 62.7813C178.504 62.7813 180.874 65.1485 180.874 68.0703C180.874 70.9914 178.504 73.3592 175.579 73.3592C172.655 73.3592 170.284 70.9914 170.284 68.0703C170.284 65.1485 172.655 62.7813 175.579 62.7813Z" fill="white"/>
<path fill-rule="evenodd" clip-rule="evenodd" d="M144.076 158.467C148.727 158.467 152.497 162.232 152.497 166.877C152.497 171.522 148.727 175.287 144.076 175.287C139.426 175.287 135.656 171.522 135.656 166.877C135.656 162.232 139.426 158.467 144.076 158.467ZM144.076 161.588C147.001 161.588 149.371 163.955 149.371 166.877C149.371 169.798 147.001 172.166 144.076 172.166C141.152 172.166 138.781 169.798 138.781 166.877C138.781 163.955 141.152 161.588 144.076 161.588Z" fill="white"/>
<path fill-rule="evenodd" clip-rule="evenodd" d="M40.4552 158.467C45.1055 158.467 48.876 162.232 48.876 166.877C48.876 171.522 45.1055 175.287 40.4552 175.287C35.8049 175.287 32.0344 171.522 32.0344 166.877C32.0344 166.198 32.1162 165.538 32.2681 164.905C32.6757 164.329 33.076 163.727 33.4696 163.106C34.1115 162.092 35.4485 160.752 36.1783 159.764C36.2326 159.69 36.2839 159.616 36.3327 159.542C37.5512 158.857 38.9572 158.467 40.4552 158.467ZM40.4552 161.588C43.3799 161.588 45.7499 163.955 45.7499 166.877C45.7499 169.798 43.3799 172.166 40.4552 172.166C37.5305 172.166 35.1599 169.798 35.1599 166.877C35.1599 163.955 37.5305 161.588 40.4552 161.588Z" fill="white"/>
<path fill-rule="evenodd" clip-rule="evenodd" d="M166.695 46.9324C169.86 51.7381 172.572 56.8674 174.769 62.2605C173.666 62.4123 172.661 62.8694 171.842 63.5441C169.801 58.519 167.297 53.7317 164.383 49.232L166.695 46.9324ZM178.413 73.2078C180.307 80.4367 181.321 88.0203 181.321 95.8428C181.321 123.314 168.878 147.879 149.319 164.234C148.828 163.265 148.076 162.45 147.155 161.882C166.081 146.114 178.126 122.385 178.126 95.8434C178.126 88.269 177.14 80.9255 175.299 73.9288C175.391 73.9331 175.484 73.9355 175.578 73.9355C176.606 73.9355 177.572 73.6722 178.413 73.2078ZM139.975 171.075C126.131 179.891 109.691 185 92.0563 185C74.5271 185 58.1804 179.949 44.3887 171.231C45.1837 170.514 45.7811 169.584 46.0899 168.53C59.3898 176.938 75.1525 181.809 92.0563 181.809C109.111 181.809 125.007 176.854 138.379 168.308C138.648 169.376 139.21 170.329 139.975 171.075ZM35.0916 164.485C34.5449 164.031 34.0049 163.571 33.4691 163.105C33.9384 162.364 34.7786 161.45 35.4809 160.625C36.0277 161.102 36.5799 161.573 37.1395 162.035C36.2498 162.645 35.5365 163.491 35.0916 164.485Z" fill="white"/>
</svg>
